# xmcd
#
# Track frame offsets: 
#        150
#        17493
#        31881
#        44619
#        56855
#        72613
#        92201
#        103301
#        117972
#        133990
#        149668
#        165341
#        178641
#        190682
#        206507
#        222020
#
# Disc length: 3185 seconds
#
# Revision: 0
# Processed by: cddbd v1.5.2PL0 Copyright (c) Steve Scherf et al.
# Submitted via: ExactAudioCopy v0.95a5
#
DISCID=f40c6f10
DTITLE=Various Artist - Best of Soul
DYEAR=1900
DGENRE=Soul
TTITLE0=Brook Benton/ Rainy Night In Georgia
TTITLE1=Clarence Carter/ Patches
TTITLE2=Gene Chandler/ Groovey Situation
TTITLE3=Tyrone Davis/ Turn Back The Hands of Time
TTITLE4=King Floyd/ Groove Me
TTITLE5=Ron Banks - Dramatics/ Watcha See Is Watcha Get
TTITLE6=Jean Knight/ Mr. Big Stuff
TTITLE7=Joe Simon/ Drowning In The Sea of Love
TTITLE8=Harold Melvin and The Blue Notes/ If You Don't Know Me By Now
TTITLE9=Al Wilson/ Show and Tell
TTITLE10=William DeVaughn/ Be Thankful For What You Got
TTITLE11=Percy Sledge/ Take Time To Know Her
TTITLE12=The Tymes/ You Little Trustmaker
TTITLE13=Bobby Womack/ Lookin' For Love
TTITLE14=Ben E. King/ Supernatural Thing, Part 1
TTITLE15=Major Harris/ Love Won't Let Me Wait
EXTD=
EXTT0=
EXTT1=
EXTT2=
EXTT3=
EXTT4=
EXTT5=
EXTT6=
EXTT7=
EXTT8=
EXTT9=
EXTT10=
EXTT11=
EXTT12=
EXTT13=
EXTT14=
EXTT15=
PLAYORDER=
